<?xml version="1.0" standalone="no"?>
<!DOCTYPE svg PUBLIC "-//W3C//DTD SVG 20010904//EN"
 "http://www.w3.org/TR/2001/REC-SVG-20010904/DTD/svg10.dtd">
<svg version="1.0" xmlns="http://www.w3.org/2000/svg"
 width="892.000000pt" height="984.000000pt" viewBox="0 0 892.000000 984.000000"
 preserveAspectRatio="xMidYMid meet">

<g transform="translate(0.000000,984.000000) scale(0.100000,-0.100000)"
fill="#000000" stroke="none">
<path d="M1580 9826 c0 -8 -23 -17 -67 -24 -71 -12 -163 -46 -241 -89 -26 -14
-57 -31 -69 -38 -89 -48 -271 -236 -324 -335 -11 -19 -23 -42 -29 -50 -11 -18
-50 -116 -76 -190 -18 -53 -19 -123 -24 -2143 -4 -1747 -7 -2089 -19 -2096 -7
-5 -106 -10 -220 -13 -165 -3 -212 -7 -236 -20 -16 -9 -43 -23 -60 -31 -73
-34 -162 -150 -177 -227 -4 -25 -15 -50 -23 -56 -13 -10 -15 -206 -15 -1627 0
-1068 3 -1616 10 -1619 5 -2 16 -32 24 -68 21 -101 91 -193 191 -249 67 -38
98 -43 319 -50 154 -5 190 -9 196 -21 4 -8 18 -53 30 -100 21 -80 57 -181 82
-225 6 -11 16 -29 23 -40 24 -45 66 -103 108 -152 50 -58 183 -178 219 -198
13 -7 44 -24 70 -38 75 -41 171 -77 238 -89 35 -6 64 -16 67 -24 4 -12 446
-14 2884 -14 2552 0 2879 2 2879 15 0 8 3 15 8 15 62 1 192 41 282 87 148 77
321 240 401 378 55 95 88 167 100 215 19 78 44 166 52 178 6 8 47 12 145 12
188 0 305 16 362 48 102 57 172 148 196 252 8 39 20 70 25 70 5 0 9 635 9
1605 0 970 -4 1605 -9 1605 -5 0 -17 31 -25 70 -28 123 -114 221 -246 281 -15
7 -110 14 -232 17 -113 2 -212 8 -220 13 -11 7 -14 255 -18 1438 -5 1411 -5
1429 -25 1452 -11 13 -76 85 -145 159 -69 75 -174 190 -234 255 -60 66 -169
183 -241 260 -72 77 -178 192 -235 255 -57 63 -160 176 -230 250 -69 74 -150
162 -180 195 -70 77 -146 159 -296 320 -66 72 -167 181 -224 242 -56 62 -111
115 -121 118 -11 4 -19 13 -19 21 0 12 -313 14 -2320 14 -1944 0 -2320 -2
-2320 -14z m4448 -298 c9 -9 12 -167 13 -647 0 -350 4 -656 8 -681 5 -25 16
-88 26 -140 9 -52 23 -103 31 -114 8 -11 14 -27 14 -34 0 -24 52 -133 98 -207
82 -130 240 -271 383 -342 88 -44 135 -63 169 -69 19 -4 47 -13 61 -20 15 -7
89 -23 165 -35 116 -17 199 -22 499 -26 220 -3 365 -9 373 -15 16 -14 18
-2298 2 -2329 -11 -19 -59 -19 -3410 -19 -3351 0 -3399 0 -3410 19 -12 24 -13
4000 0 4076 26 157 105 295 235 412 68 62 212 143 252 143 12 0 34 5 50 11 15
6 46 14 68 19 22 4 1012 8 2200 9 1669 1 2164 -2 2173 -11z m346 -304 c13 -5
124 -123 340 -364 32 -36 98 -106 145 -155 47 -50 129 -137 181 -195 107 -119
312 -341 411 -445 115 -121 373 -406 402 -443 30 -39 34 -69 14 -96 -13 -17
-34 -18 -373 -13 -300 4 -377 9 -469 25 -60 11 -123 27 -140 36 -16 9 -37 16
-46 16 -30 0 -144 58 -206 104 -33 25 -83 74 -111 107 -55 68 -142 234 -142
272 0 14 -8 44 -17 68 -16 39 -18 101 -21 567 -2 335 0 522 7 522 5 0 16 -3
25 -6z m-2583 -5494 c30 -5 109 -14 175 -19 112 -9 228 -33 247 -51 10 -8 -6
-144 -28 -240 -8 -36 -17 -77 -20 -92 -5 -25 -9 -28 -49 -28 -24 0 -83 8 -132
17 -60 11 -143 17 -253 17 -159 1 -164 0 -182 -23 -14 -17 -19 -39 -19 -82 0
-79 10 -85 185 -99 77 -7 153 -17 170 -24 16 -7 47 -16 67 -20 115 -21 256
-123 306 -221 28 -56 62 -198 62 -259 0 -23 -9 -88 -19 -147 -28 -164 -94
-282 -189 -341 -51 -32 -142 -68 -171 -68 -13 0 -51 -7 -84 -16 -51 -13 -103
-15 -297 -11 -389 8 -618 42 -613 93 5 56 23 166 37 223 9 36 18 78 21 94 5
24 10 27 43 27 20 0 69 -9 108 -19 84 -23 361 -36 499 -24 l90 8 3 75 c1 41
-2 81 -6 88 -11 16 -91 29 -247 40 -194 15 -326 64 -412 155 -58 61 -64 71
-95 158 -21 57 -23 82 -23 229 0 134 3 175 19 220 20 60 58 139 88 182 20 29
117 98 137 98 7 0 26 7 43 16 75 39 414 67 539 44z m1274 -54 c14 -21 16 -62
14 -281 -1 -208 1 -259 12 -266 22 -14 343 -11 357 3 9 9 12 84 12 278 0 194
3 269 12 278 19 19 468 17 494 -2 19 -14 19 -34 19 -810 0 -575 -3 -798 -11
-806 -13 -13 -489 -18 -502 -6 -4 4 -9 132 -12 284 l-5 277 -183 3 c-152 2
-183 0 -188 -12 -3 -8 -6 -132 -7 -275 -1 -181 -6 -264 -14 -271 -14 -15 -491
-16 -505 -2 -10 10 -13 1607 -3 1623 4 5 108 9 250 9 l245 0 15 -24z m2793
-2800 c5 -22 -26 -123 -44 -146 -6 -8 -15 -26 -19 -38 -11 -36 -61 -107 -113
-160 -56 -56 -167 -141 -202 -153 -14 -5 -38 -16 -55 -23 -16 -8 -71 -23 -121
-35 l-91 -21 -2753 0 -2753 0 -91 21 c-182 43 -298 112 -409 244 -89 107 -171
297 -140 328 3 4 1532 6 3397 5 3333 -3 3391 -3 3394 -22z"/>
<path d="M4534 7390 c-57 -41 -74 -83 -119 -295 -15 -72 -42 -185 -56 -240 -6
-22 -17 -71 -24 -110 -8 -38 -21 -87 -29 -107 -9 -21 -16 -53 -16 -71 0 -19
-9 -63 -20 -97 -11 -34 -20 -73 -20 -85 0 -13 -9 -51 -19 -86 -10 -35 -22 -84
-25 -109 -4 -25 -13 -65 -21 -90 -7 -25 -26 -99 -40 -165 -15 -66 -35 -154
-45 -195 -54 -221 -52 -203 -29 -262 26 -66 49 -92 98 -107 87 -26 159 -6 207
58 19 24 37 56 39 70 3 14 12 55 21 91 9 36 20 90 25 120 5 30 16 71 23 90 8
19 17 60 21 90 4 30 12 66 18 80 5 14 15 54 22 90 16 80 40 182 66 275 10 39
19 79 19 90 0 11 8 52 19 90 33 122 53 208 62 265 5 30 14 66 20 80 6 14 17
59 25 100 8 41 20 99 28 128 43 153 30 243 -42 298 -40 30 -52 34 -106 34 -53
0 -68 -4 -102 -30z"/>
<path d="M3658 7172 c-25 -7 -164 -116 -253 -199 -22 -21 -103 -92 -180 -158
-255 -219 -370 -330 -385 -370 -16 -42 -12 -79 16 -131 29 -55 27 -53 179
-183 61 -52 135 -117 165 -146 30 -28 96 -86 145 -127 50 -41 126 -108 170
-147 127 -115 187 -136 270 -93 84 43 113 103 99 200 -8 55 -35 84 -267 283
-187 161 -317 280 -317 291 0 4 12 19 28 32 15 13 68 58 117 101 50 42 126
110 170 149 44 40 115 103 158 140 95 83 111 111 111 193 0 68 -14 97 -66 137
-35 26 -112 40 -160 28z"/>
<path d="M5159 7173 c-44 -7 -107 -69 -120 -115 -11 -42 -5 -118 12 -150 5 -9
46 -50 92 -89 45 -40 118 -105 162 -145 44 -39 121 -107 170 -149 50 -43 102
-88 118 -101 15 -13 27 -28 27 -32 0 -10 -129 -129 -313 -287 -238 -205 -257
-224 -268 -275 -14 -61 -3 -133 26 -164 30 -33 101 -68 140 -69 52 -1 114 36
230 140 61 54 135 118 165 143 30 24 80 68 110 96 54 51 163 146 270 235 73
61 115 142 106 200 -4 23 -18 56 -32 74 -25 34 -172 168 -379 347 -61 52 -126
110 -145 128 -28 25 -137 119 -230 196 -17 14 -101 24 -141 17z"/>
</g>
</svg>
